<svg width="16" height="18" viewBox="0 0 16 18" fill="none" xmlns="http://www.w3.org/2000/svg">
<path d="M13.2217 2.15655H10.4198C10.2801 0.94457 9.24889 0 8.00001 0C6.75116 0 5.72014 0.944533 5.58037 2.15655H2.77837C1.64448 2.15655 0.722107 3.07918 0.722107 4.21303V4.31855C0.722107 5.18502 1.26163 5.92666 2.02166 6.22884V15.9435C2.02166 17.0774 2.94414 18 4.07796 18H11.9221C13.056 18 13.9784 17.0773 13.9784 15.9435V6.22888C14.7384 5.92666 15.2779 5.18502 15.2779 4.31858V4.21307C15.2779 3.07918 14.3555 2.15655 13.2217 2.15655ZM8.00001 0.975277C8.7103 0.975277 9.30318 1.48439 9.43436 2.15655H6.56591C6.69706 1.48435 7.28997 0.975277 8.00001 0.975277ZM13.0031 15.9435C13.0031 16.5397 12.5181 17.0248 11.9221 17.0248H4.07792C3.48195 17.0248 2.9969 16.5396 2.9969 15.9435V6.37503H13.0031V15.9435ZM14.3027 4.31855C14.3027 4.9147 13.8176 5.39979 13.2216 5.39979H2.77837C2.1824 5.39979 1.69735 4.9147 1.69735 4.31855V4.21303C1.69735 3.61687 2.1824 3.13179 2.77837 3.13179H13.2217C13.8177 3.13179 14.3027 3.61687 14.3027 4.21303V4.31855H14.3027Z" fill="#0073DB"/>
<path d="M5.3856 15.7775C5.65491 15.7775 5.87322 15.5591 5.87322 15.2899V9.79942C5.87322 9.53019 5.65488 9.31177 5.3856 9.31177C5.11633 9.31177 4.89798 9.53019 4.89798 9.79942V15.2899C4.89794 15.5592 5.11629 15.7775 5.3856 15.7775Z" fill="#0073DB"/>
<path d="M7.99998 15.7775C8.26929 15.7775 8.48763 15.5591 8.48763 15.2899V9.79942C8.48763 9.53019 8.26921 9.31177 7.99998 9.31177C7.7307 9.31177 7.51236 9.53019 7.51236 9.79942V15.2899C7.51236 15.5592 7.73067 15.7775 7.99998 15.7775Z" fill="#0073DB"/>
<path d="M10.6144 15.7775C10.8837 15.7775 11.102 15.5591 11.102 15.2899V9.79942C11.102 9.53019 10.8836 9.31177 10.6144 9.31177C10.345 9.31177 10.1267 9.53019 10.1267 9.79942V15.2899C10.1267 15.5592 10.3451 15.7775 10.6144 15.7775Z" fill="#0073DB"/>
</svg>
