<svg width="37" height="21" viewBox="0 0 37 21" fill="none" xmlns="http://www.w3.org/2000/svg">
<path d="M36.5624 0.931808C36.2478 0.588403 35.8003 0.391479 35.3346 0.391479H34.8405C33.5449 0.391479 32.4824 1.36475 32.3692 2.65541L31.8346 8.74588C31.7873 9.28563 31.3429 9.6927 30.801 9.6927H26.1741C24.6915 9.6927 23.4854 10.8989 23.4854 12.3815V12.6486C23.4854 13.5444 24.214 14.273 25.1097 14.273H26.1014L25.1248 17.4625C25.1241 17.4649 25.1234 17.4672 25.1227 17.4696L24.3762 19.9076C24.2885 20.1938 24.4495 20.4968 24.7357 20.5845C24.7886 20.6007 24.8421 20.6084 24.8946 20.6084C25.1265 20.6084 25.3412 20.4583 25.4126 20.225L26.0422 18.1689H33.4761L34.1057 20.225C34.1771 20.4583 34.3917 20.6084 34.6237 20.6084C34.6763 20.6084 34.7298 20.6007 34.7826 20.5845C35.0688 20.4968 35.2298 20.1937 35.1421 19.9076L33.3704 14.1216C33.6815 14.0335 33.9819 13.9082 34.2638 13.7466C34.5234 13.5978 34.6132 13.2666 34.4644 13.0069C34.3155 12.7473 33.9842 12.6575 33.7246 12.8063C33.2878 13.0567 32.7895 13.1891 32.2836 13.1891H26.8346C26.8328 13.1891 26.831 13.1891 26.8293 13.1891H25.1099C24.8119 13.1891 24.5695 12.9467 24.5695 12.6487V12.3816C24.5695 11.4967 25.2894 10.7768 26.1743 10.7768H30.8011C31.9092 10.7768 32.8178 9.9444 32.9146 8.84069L33.4491 2.75015C33.5128 2.02345 34.1111 1.47539 34.8406 1.47539H35.3347C35.4996 1.47539 35.6518 1.54238 35.7632 1.664C35.8746 1.78563 35.9281 1.94309 35.9136 2.10742L35.1735 10.5416C35.1553 10.7496 35.1147 10.9554 35.0531 11.1533C34.9641 11.4391 35.1236 11.7429 35.4094 11.8319C35.6956 11.9209 35.9991 11.7613 36.0882 11.4756C36.1728 11.2038 36.2284 10.9214 36.2534 10.6363L36.9936 2.20216C37.034 1.73829 36.8769 1.27521 36.5624 0.931808ZM27.2349 14.2731H32.283L33.144 17.085H26.3739L27.2349 14.2731Z" fill="#F28E1C"/>
<path d="M10.8255 9.69367H6.19866C5.65674 9.69367 5.21245 9.28667 5.16504 8.74685L4.63057 2.65639C4.51733 1.36573 3.45488 0.392456 2.15923 0.392456H1.66516C1.19948 0.392456 0.751936 0.589379 0.437365 0.932785C0.122793 1.27619 -0.0343121 1.73927 0.00630105 2.20328L0.746444 10.6375C0.833813 11.6328 1.28764 12.5526 2.02439 13.2275C2.48725 13.6516 3.03683 13.9557 3.62911 14.1234L1.8576 19.9086C1.76994 20.1949 1.93095 20.4979 2.21712 20.5855C2.27002 20.6017 2.32349 20.6094 2.37603 20.6094C2.60793 20.6094 2.82263 20.4594 2.89403 20.226L3.52361 18.17H10.9576L11.5871 20.226C11.6585 20.4594 11.8732 20.6094 12.1051 20.6094C12.1577 20.6094 12.2112 20.6017 12.264 20.5855C12.5502 20.4979 12.7112 20.1948 12.6236 19.9086L11.8771 17.4707C11.8763 17.4683 11.8756 17.4659 11.8749 17.4635L10.8983 14.2741H11.89C12.7857 14.2741 13.5143 13.5454 13.5143 12.6497V12.3825C13.5143 10.8999 12.3081 9.69367 10.8255 9.69367ZM3.85552 17.0859L4.71649 14.274H9.7646L10.6256 17.0859H3.85552ZM12.4303 12.6496C12.4303 12.9476 12.1879 13.19 11.89 13.19H10.1709C10.1688 13.19 10.1667 13.19 10.1645 13.19H4.7162C4.60029 13.19 4.48626 13.1826 4.37395 13.1696C4.37388 13.1696 4.37374 13.1696 4.37359 13.1696C3.0176 13.0128 1.94851 11.9364 1.82623 10.5426L1.08609 2.10847C1.07164 1.94407 1.12512 1.7866 1.23655 1.66498C1.34791 1.54336 1.5001 1.47637 1.66508 1.47637H2.15916C2.88868 1.47637 3.4869 2.02435 3.55063 2.75113L4.08511 8.84159V8.84152C4.18194 9.94523 5.09054 10.7776 6.19859 10.7776H10.8255C11.7103 10.7776 12.4303 11.4975 12.4303 12.3824V12.6496H12.4303Z" fill="#F28E1C"/>
<path d="M22.6153 18.8207C22.3917 17.9609 21.6151 17.3605 20.7268 17.3605H20.3913V7.49377H27.0653C27.4498 7.49377 27.8096 7.32286 28.0525 7.02491C28.2955 6.72689 28.3905 6.33998 28.313 5.96333C28.0799 4.82992 27.0709 4.00732 25.9139 4.00732H14.6457C14.3463 4.00732 14.1037 4.24999 14.1037 4.54932C14.1037 4.84864 14.3463 5.09131 14.6457 5.09131H25.9139C26.5589 5.09131 27.1213 5.5499 27.2512 6.18165C27.2671 6.25854 27.2337 6.31382 27.2124 6.33998C27.1911 6.36607 27.1437 6.40986 27.0653 6.40986H9.93448C9.85608 6.40986 9.80867 6.36607 9.78735 6.33998C9.76611 6.31389 9.73272 6.25854 9.74855 6.18172C9.87848 5.5499 10.4408 5.09131 11.0859 5.09131H12.1037C12.4031 5.09131 12.6457 4.84864 12.6457 4.54932C12.6457 4.24999 12.4031 4.00732 12.1037 4.00732H11.0859C9.92878 4.00732 8.91981 4.82992 8.68675 5.96341C8.60935 6.34005 8.70431 6.72696 8.94727 7.02491C9.19022 7.32286 9.55003 7.49377 9.93448 7.49377H16.6086V17.3605H16.2731C15.3847 17.3605 14.6082 17.961 14.3845 18.8207L14.2573 19.3097C14.1758 19.623 14.2426 19.9494 14.4405 20.2055C14.6385 20.4615 14.9377 20.6084 15.2613 20.6084H21.7385C22.0621 20.6084 22.3613 20.4616 22.5593 20.2055C22.7572 19.9495 22.824 19.623 22.7425 19.3097L22.6153 18.8207ZM17.6925 7.49377H19.3074V17.3605H17.6925V7.49377ZM15.3214 19.5244L15.4336 19.0935C15.533 18.7114 15.8782 18.4445 16.273 18.4445H20.7267C21.1215 18.4445 21.4668 18.7114 21.5661 19.0935L21.6783 19.5244H15.3214Z" fill="#F28E1C"/>
</svg>
