<svg width="37" height="37" viewBox="0 0 37 37" fill="none" xmlns="http://www.w3.org/2000/svg">
<path d="M36.128 11.841L18.8252 0.0998484C18.629 -0.0334817 18.3711 -0.0334094 18.1747 0.0998484L0.872006 11.841C0.713094 11.9488 0.61792 12.1283 0.61792 12.3204V36.4206C0.61792 36.7405 0.877281 37 1.19727 37H35.8027C36.1227 37 36.382 36.7406 36.382 36.4206V12.3204C36.382 12.1283 36.2869 11.9488 36.128 11.841ZM14.2129 35.8413H7.95613V29.5845H9.26927V32.7129C9.26927 33.0328 9.52863 33.2922 9.84863 33.2922H12.3205C12.6404 33.2922 12.8998 33.0329 12.8998 32.7129V29.5845H14.213V35.8413H14.2129ZM6.72025 14.8308V13.5177H30.2798V14.8308H6.72025ZM10.428 32.1335V29.5845H11.7411V32.1335H10.428ZM14.2129 28.4258H12.3204H9.84855H7.95606V22.1691H9.2692V25.2974C9.2692 25.6173 9.52856 25.8768 9.84855 25.8768H12.3204C12.6403 25.8768 12.8998 25.6174 12.8998 25.2974V22.1691H14.2129V28.4258ZM10.428 24.7181V22.1691H11.7411V24.7181H10.428ZM21.6284 35.8413H15.3716V29.5845H16.6847V32.7129C16.6847 33.0328 16.9441 33.2922 17.2641 33.2922H19.7359C20.0559 33.2922 20.3153 33.0329 20.3153 32.7129V29.5845H21.6284V35.8413H21.6284ZM17.8434 32.1335V29.5845H19.1565V32.1335H17.8434ZM35.2234 35.8413H30.2025V23.4435C30.2025 23.1236 29.9432 22.8642 29.6232 22.8642C29.3032 22.8642 29.0438 23.1235 29.0438 23.4435V35.8412H22.7871V29.0052C22.7871 28.6852 22.5278 28.4258 22.2077 28.4258H15.3716V21.5897C15.3716 21.2698 15.1122 21.0103 14.7922 21.0103H7.95613V15.9895H29.0438V20.9718C29.0438 21.2917 29.3031 21.5511 29.6232 21.5511C29.9432 21.5511 30.2025 21.2917 30.2025 20.9718V15.9895H30.8591C31.1791 15.9895 31.4385 15.7301 31.4385 15.4101V12.9383C31.4385 12.6184 31.1792 12.359 30.8591 12.359H6.14089C5.82097 12.359 5.56154 12.6184 5.56154 12.9383V15.4102C5.56154 15.7301 5.8209 15.9895 6.14089 15.9895H6.7975V35.8413H1.77663V12.6274L18.5 1.27937L35.2233 12.6274V35.8413H35.2234Z" fill="#F28E1C"/>
</svg>
