<svg width="37" height="36" viewBox="0 0 37 36" fill="none" xmlns="http://www.w3.org/2000/svg">
<g clip-path="url(#clip0)">
<path d="M12.3689 11.3282H0.426513C0.191078 11.3282 0 11.5234 0 11.764V15.2496V25.7065C0 25.947 0.191078 26.1422 0.426513 26.1422H12.3689C12.6043 26.1422 12.7954 25.947 12.7954 25.7065V15.2496V11.764C12.7954 11.5234 12.6043 11.3282 12.3689 11.3282ZM11.9424 25.2708H0.853026V15.6853H11.9424V25.2708ZM11.9424 14.8139H0.853026V12.1997H11.9424V14.8139Z" fill="#F28E1C"/>
<path d="M9.78464 20.0424C9.57138 18.0848 7.94338 16.5568 5.97118 16.5568C3.85483 16.5568 2.13257 18.3161 2.13257 20.4781C2.13257 22.6401 3.85483 24.3994 5.97118 24.3994C7.94338 24.3994 9.57138 22.8714 9.78464 20.9138H10.6628V20.0424H9.78464ZM5.97118 18.2996C4.79529 18.2996 3.83862 19.2769 3.83862 20.4781C3.83862 21.6793 4.79529 22.6566 5.97118 22.6566C7.00079 22.6566 7.86234 21.9068 8.06067 20.9138H8.92265C8.71452 22.3895 7.47208 23.528 5.97118 23.528C4.32485 23.528 2.98559 22.1599 2.98559 20.4781C2.98559 18.7963 4.32485 17.4282 5.97118 17.4282C7.47208 17.4282 8.71452 18.5667 8.92265 20.0424H8.06067C7.86234 19.0494 7.00121 18.2996 5.97118 18.2996ZM7.25072 20.4781C7.25072 21.1987 6.67664 21.7852 5.97118 21.7852C5.26573 21.7852 4.69165 21.1987 4.69165 20.4781C4.69165 19.7574 5.26573 19.171 5.97118 19.171C6.67664 19.171 7.25072 19.7574 7.25072 20.4781Z" fill="#F28E1C"/>
<path d="M7.67724 13.071H6.82422V13.9425H7.67724V13.071Z" fill="#F28E1C"/>
<path d="M9.3833 13.071H8.53027V13.9425H9.3833V13.071Z" fill="#F28E1C"/>
<path d="M11.0894 13.071H10.2363V13.9425H11.0894V13.071Z" fill="#F28E1C"/>
<path d="M5.11816 13.071H1.70605V13.9425H5.11816V13.071Z" fill="#F28E1C"/>
<path fill-rule="evenodd" clip-rule="evenodd" d="M24.3113 15.2496V15.6853H25.1643C25.3997 15.6853 25.5908 15.8805 25.5908 16.121V17.8639C25.5908 18.1044 25.3997 18.2996 25.1643 18.2996H23.1955L20.1412 21.1072L22.4186 23.1014L21.9054 23.8003L19.5015 21.6954L14.7868 26.0302L14.2161 25.3828L18.8485 21.1238L15.6232 18.2996H14.075C13.8395 18.2996 13.6484 18.1044 13.6484 17.8639V16.121C13.6484 15.8805 13.8395 15.6853 14.075 15.6853H17.104C17.2738 14.8331 17.9323 14.1604 18.7666 13.9865V12.6354C18.7666 12.5199 18.8118 12.4093 18.8916 12.3274C18.9713 12.2455 19.0801 12.1997 19.1931 12.1997H24.3113C24.5147 12.1997 24.6896 12.3461 24.7292 12.55L25.1558 14.7285C25.1809 14.8566 25.1485 14.9895 25.0675 15.0902C24.9864 15.1912 24.8657 15.2496 24.7378 15.2496H24.3113ZM23.9615 13.0711H19.6196V13.9425H23.8848C23.9402 13.9425 23.9918 13.9552 24.0404 13.9743C24.0498 13.9783 24.0582 13.9836 24.0667 13.9889C24.072 13.9923 24.0774 13.9957 24.0831 13.9987C24.0901 14.0027 24.0975 14.0063 24.1048 14.01C24.1209 14.018 24.1371 14.0261 24.1509 14.0375L23.9615 13.0711ZM23.4582 14.8139H19.1931C18.6374 14.8139 18.1627 15.1782 17.9869 15.6853H23.4582V14.8139ZM16.9339 18.2996L19.4878 20.536L21.9202 18.2996H16.9339ZM14.5015 17.4281H24.7378V16.5567H23.8848H17.4871H14.5015V17.4281Z" fill="#F28E1C"/>
<path d="M24.803 7.21699L20.4726 5.37353V4.7178C20.9691 4.53785 21.3256 4.05335 21.3256 3.48519C21.3256 2.76454 20.7516 2.17808 20.0461 2.17808C19.3407 2.17808 18.7666 2.76454 18.7666 3.48519H19.6196C19.6196 3.24512 19.8111 3.04949 20.0461 3.04949C20.2811 3.04949 20.4726 3.24512 20.4726 3.48519C20.4726 3.72526 20.2811 3.9209 20.0461 3.9209C19.8107 3.9209 19.6196 4.11609 19.6196 4.3566V5.3731L18.3038 5.93341C18.3017 5.92513 18.2974 5.91816 18.2953 5.90988C18.291 5.89376 18.2893 5.8772 18.2846 5.86152C18.2637 5.79224 18.2364 5.72602 18.2049 5.66153C18.1985 5.64846 18.1908 5.6367 18.184 5.62362C18.146 5.55217 18.1021 5.48464 18.0517 5.42146C18.0432 5.41057 18.0355 5.39924 18.0266 5.38878C18.0215 5.38268 18.0172 5.37571 18.0121 5.36961C18.0082 5.36525 18.0035 5.36177 17.9997 5.35741C17.9613 5.31515 17.9212 5.27463 17.8777 5.23803C17.8649 5.22713 17.8496 5.21842 17.8363 5.20796C17.8214 5.19664 17.8065 5.18618 17.7911 5.17529C17.7169 5.12257 17.6389 5.07464 17.5531 5.03804L13.2219 3.19501V2.53972C13.7184 2.35977 14.0749 1.87527 14.0749 1.30711C14.0749 0.586457 13.5008 0 12.7954 0C12.0899 0 11.5159 0.586457 11.5159 1.30711H12.3689C12.3689 1.06704 12.5604 0.871407 12.7954 0.871407C13.0304 0.871407 13.2219 1.06704 13.2219 1.30711C13.2219 1.54718 13.0304 1.74281 12.7954 1.74281C12.56 1.74281 12.3689 1.93801 12.3689 2.17852V3.19501L8.03849 5.03804C7.95276 5.07464 7.87471 5.12213 7.80092 5.17485C7.78557 5.18574 7.76979 5.19664 7.75486 5.20796C7.68534 5.26199 7.62093 5.32212 7.56463 5.38878C7.55568 5.39924 7.54843 5.411 7.53947 5.42189C7.48914 5.48507 7.44521 5.55217 7.40725 5.62362C7.40043 5.6367 7.39232 5.64846 7.38593 5.66197C7.34754 5.74083 7.31811 5.82405 7.2955 5.91032C7.29337 5.9186 7.28868 5.92557 7.28697 5.93385L5.97118 5.37353V4.7178C6.46764 4.53785 6.82421 4.05335 6.82421 3.48519C6.82421 2.76454 6.25012 2.17808 5.54467 2.17808C4.83922 2.17808 4.26513 2.76454 4.26513 3.48519H5.11816C5.11816 3.24512 5.30966 3.04949 5.54467 3.04949C5.77968 3.04949 5.97118 3.24512 5.97118 3.48519C5.97118 3.72526 5.77968 3.9209 5.54467 3.9209C5.30923 3.9209 5.11816 4.11609 5.11816 4.3566V5.3731L0.787769 7.21612C0.309222 7.42047 0 7.89408 0 8.42346V8.71407C0 9.43472 0.574086 10.0212 1.27954 10.0212H9.8098C10.5153 10.0212 11.0893 9.43472 11.0893 8.71407V8.42346C11.0893 8.21693 11.0424 8.01912 10.9567 7.84266H14.6341C14.5484 8.01956 14.5014 8.21737 14.5014 8.42346V8.71407C14.5014 9.43472 15.0755 10.0212 15.781 10.0212H24.3112C25.0167 10.0212 25.5908 9.43472 25.5908 8.71407V8.42346C25.5908 7.89408 25.2816 7.42047 24.803 7.21699ZM10.2363 8.71407C10.2363 8.95414 10.0448 9.14977 9.8098 9.14977H1.27954C1.04453 9.14977 0.853026 8.95414 0.853026 8.71407V8.42346C0.853026 8.247 0.956242 8.08883 1.11576 8.0213L5.54467 6.13601L7.30276 6.88412C7.45331 7.43528 7.9438 7.84266 8.53026 7.84266H9.55389L9.97401 8.02174C10.1331 8.08927 10.2363 8.24743 10.2363 8.42346V8.71407ZM9.63919 6.97126H8.53026C8.29525 6.97126 8.10375 6.77562 8.10375 6.53555V6.24494C8.10375 6.06848 8.20696 5.91032 8.36648 5.84278L12.7954 3.95749L17.2247 5.84278C17.3838 5.91075 17.487 6.06891 17.487 6.24494V6.51551C17.4858 6.52858 17.4845 6.54252 17.484 6.5508C17.484 6.55603 17.4815 6.56082 17.4811 6.56605C17.4772 6.61921 17.4661 6.67062 17.4457 6.7168C17.4427 6.72378 17.4367 6.72857 17.4333 6.73554C17.4124 6.77693 17.3872 6.81615 17.3552 6.84839C17.3382 6.86494 17.316 6.8754 17.2964 6.88891C17.2725 6.9059 17.2503 6.92638 17.223 6.93771C17.1731 6.95906 17.1181 6.97126 17.0605 6.97126H15.9516H9.63919ZM24.7378 8.71407C24.7378 8.95414 24.5462 9.14977 24.3112 9.14977H15.781C15.546 9.14977 15.3545 8.95414 15.3545 8.71407V8.42346C15.3545 8.247 15.4577 8.08883 15.6172 8.0213L16.0369 7.84266H17.0605C17.1475 7.84266 17.2328 7.83351 17.3151 7.81652C17.3356 7.81216 17.354 7.80345 17.374 7.79866C17.435 7.78297 17.496 7.76598 17.5531 7.74158C17.5749 7.73243 17.5941 7.71892 17.6154 7.70803C17.6674 7.68232 17.7199 7.65618 17.7677 7.6235C17.7924 7.60651 17.8142 7.58516 17.8376 7.56686C17.8773 7.53549 17.9178 7.50499 17.9536 7.46883C17.9822 7.44007 18.0065 7.40696 18.0325 7.37559C18.0577 7.34509 18.0846 7.31633 18.1068 7.28365C18.1375 7.23921 18.1618 7.19085 18.1869 7.14249C18.1989 7.11896 18.2134 7.09717 18.224 7.07277C18.2505 7.01352 18.2697 6.95078 18.2872 6.88717C18.2876 6.88629 18.288 6.88542 18.288 6.88455L20.0461 6.13601L24.475 8.0213C24.6345 8.08927 24.7378 8.24743 24.7378 8.42346V8.71407Z" fill="#F28E1C"/>
</g>
<g clip-path="url(#clip1)">
<path d="M30.3206 34.4746C30.1825 34.5098 30.0418 34.541 29.9021 34.5673C29.5369 34.6367 29.2955 34.9954 29.363 35.3688C29.3964 35.5525 29.4985 35.7055 29.6372 35.8054C29.7801 35.9081 29.9619 35.9545 30.1473 35.9193C30.3136 35.8878 30.4813 35.8507 30.6458 35.8087C31.0064 35.7171 31.2261 35.3439 31.1361 34.9757C31.0464 34.6071 30.6814 34.3829 30.3206 34.4746Z" fill="#F28E1C"/>
<path d="M35.2975 25.2599C35.3446 25.4051 35.4346 25.5235 35.5483 25.6054C35.7169 25.7267 35.9374 25.7675 36.1479 25.6964C36.5008 25.5767 36.692 25.188 36.5752 24.8277C36.522 24.6634 36.463 24.4987 36.4002 24.3383C36.2621 23.9857 35.8707 23.8141 35.5254 23.9551C35.1805 24.096 35.0124 24.496 35.1505 24.8487C35.2033 24.9835 35.2528 25.1219 35.2975 25.2599Z" fill="#F28E1C"/>
<path d="M32.5075 33.4932C32.3888 33.5732 32.2663 33.6507 32.1428 33.7233C31.8208 33.9131 31.7105 34.3336 31.8962 34.6624C31.9466 34.7519 32.0138 34.825 32.0911 34.8809C32.2987 35.0301 32.5806 35.0524 32.8154 34.9143C32.9621 34.8278 33.1081 34.7359 33.2494 34.6403C33.5594 34.4311 33.6447 34.0046 33.4398 33.6878C33.235 33.3709 32.8176 33.2838 32.5075 33.4932Z" fill="#F28E1C"/>
<path d="M36.9934 27.1798C36.9787 26.8003 36.6659 26.505 36.2943 26.5198C35.9232 26.5348 35.6339 26.8545 35.6485 27.2338C35.6541 27.3788 35.6555 27.526 35.6522 27.6709C35.647 27.9088 35.7609 28.121 35.938 28.2484C36.0435 28.3243 36.1715 28.3702 36.3103 28.3735C36.6817 28.3819 36.9895 28.0809 36.9978 27.7013C37.0015 27.5282 37.0001 27.3528 36.9934 27.1798Z" fill="#F28E1C"/>
<path d="M35.1873 31.6846C34.8895 31.4564 34.4681 31.5183 34.245 31.822C34.1596 31.9384 34.0696 32.0532 33.9775 32.1639C33.7367 32.4528 33.7707 32.8868 34.0536 33.1329C34.0697 33.1469 34.086 33.1597 34.1029 33.1718C34.3841 33.3743 34.7749 33.3277 35.0023 33.0552C35.1123 32.9232 35.2195 32.786 35.3216 32.6471C35.5447 32.3434 35.4844 31.9126 35.1873 31.6846Z" fill="#F28E1C"/>
<path d="M36.1767 29.1995C35.822 29.0859 35.4444 29.2876 35.3332 29.6499C35.2907 29.7883 35.2436 29.9273 35.1927 30.0635C35.0809 30.3634 35.188 30.6933 35.4334 30.8701C35.4784 30.9024 35.528 30.9298 35.5819 30.9506C35.9291 31.0859 36.318 30.908 36.4503 30.5531C36.5107 30.3912 36.5668 30.2257 36.6175 30.0612C36.7285 29.6988 36.5312 29.3131 36.1767 29.1995Z" fill="#F28E1C"/>
<path d="M27.3844 34.5735C26.7827 34.4631 26.2056 34.2752 25.6583 34.0131C25.6518 34.0097 25.646 34.0057 25.6392 34.0026C25.5102 33.9405 25.3815 33.8741 25.2567 33.8047C25.2562 33.8042 25.2554 33.8039 25.2548 33.8036C25.0258 33.6748 24.8023 33.5322 24.5852 33.3761C21.4194 31.098 20.6583 26.6136 22.8885 23.3796C23.3734 22.6767 23.9603 22.0902 24.6145 21.6254C24.6226 21.6197 24.6306 21.614 24.6386 21.6082C26.9441 19.9854 30.0747 19.8761 32.5227 21.5436L31.997 22.3197C31.8508 22.5357 31.9407 22.6931 32.1966 22.6696L34.4805 22.4607C34.7367 22.4372 34.89 22.2108 34.8211 21.958L34.2078 19.7007C34.1391 19.4476 33.9633 19.4173 33.817 19.6333L33.29 20.4112C31.4934 19.1792 29.3386 18.7094 27.1999 19.0883C26.9844 19.1264 26.7721 19.173 26.5626 19.2272C26.561 19.2275 26.5597 19.2277 26.5584 19.228C26.5503 19.23 26.5421 19.2327 26.5342 19.235C24.6899 19.7188 23.0808 20.8176 21.9326 22.3854C21.9229 22.3971 21.913 22.4086 21.9038 22.4214C21.8656 22.4739 21.8277 22.5276 21.7906 22.5814C21.73 22.6695 21.6702 22.7597 21.6129 22.85C21.6058 22.8609 21.6003 22.872 21.5941 22.883C20.6465 24.3829 20.1895 26.1169 20.2679 27.8822C20.2681 27.8881 20.2678 27.8939 20.2679 27.8999C20.2755 28.0723 20.2889 28.2471 20.3071 28.4193C20.308 28.4304 20.3104 28.4409 20.3123 28.452C20.3311 28.625 20.3546 28.7985 20.3842 28.972C20.6844 30.7416 21.5016 32.334 22.7261 33.573C22.7289 33.5759 22.7319 33.5791 22.7348 33.5821C22.7358 33.5832 22.7369 33.5838 22.7379 33.5849C23.0668 33.9164 23.4247 34.2229 23.81 34.5002C24.8183 35.226 25.9411 35.7058 27.1469 35.9268C27.5128 35.994 27.8623 35.7452 27.9279 35.3716C27.9935 34.9978 27.7502 34.6404 27.3844 34.5735Z" fill="#F28E1C"/>
<path d="M28.2166 21.9569C27.9156 21.9569 27.6719 22.2062 27.6719 22.5131V28.0548L32.6333 30.6748C32.7131 30.7171 32.7986 30.7369 32.8827 30.7369C33.0798 30.7369 33.2701 30.6273 33.3669 30.436C33.5049 30.1631 33.4005 29.8277 33.1332 29.6867L28.7607 27.3774V22.5131C28.7607 22.2062 28.5172 21.9569 28.2166 21.9569Z" fill="#F28E1C"/>
</g>
<defs>
<clipPath id="clip0">
<rect width="25.5908" height="26.1422" fill="white"/>
</clipPath>
<clipPath id="clip1">
<rect width="16.7406" height="17.1014" fill="white" transform="translate(20.2593 18.8986)"/>
</clipPath>
</defs>
</svg>
